<svg xmlns="http://www.w3.org/2000/svg" viewBox="0 0 121 125" class="jfWizard-list-item-icon-svg" width="187" height="204">
    <g fill="none" fill-rule="evenodd">
        <path d="M4.417 0h112a4 4 0 014 4v121h-120V4a4 4 0 014-4z" fill="#FFF" fill-rule="nonzero"></path>
        <g transform="translate(10.417 13)">
            <path d="M17.001 31.122h79.14a2.858 2.858 0 010 5.716h-79.14a2.858 2.858 0 110-5.716z" fill="#DAE2ED" fill-rule="nonzero"></path>
            <rect fill="#DAE2ED" fill-rule="nonzero" y="20.324" width="74.571" height="5.716" rx="2.858"></rect>
            <rect fill="#DAE2ED" fill-rule="nonzero" width="99" height="8.257" rx="3"></rect>
            <path d="M17.001 41.284h79.14a2.858 2.858 0 010 5.716h-79.14a2.858 2.858 0 110-5.716z" fill="#DAE2ED" fill-rule="nonzero"></path>
            <g transform="translate(0 30.486)">
                <rect fill="#2F90FF" fill-rule="nonzero" width="6.429" height="6.351" rx="2"></rect>
                <path d="M2.734 4.765a.33.33 0 01-.238-.103L1.304 3.424a.36.36 0 010-.495.328.328 0 01.477 0l.953.99L4.878 1.69a.328.328 0 01.477 0 .36.36 0 010 .496L2.972 4.662a.33.33 0 01-.238.103" fill="#FFF"></path>
            </g>
            <rect fill="#DAE2ED" fill-rule="nonzero" y="40.649" width="6.429" height="6.351" rx="2"></rect>
        </g>
        <g transform="translate(10.417 72)">
            <path d="M17.036 10.929h79.071a2.893 2.893 0 010 5.785H17.036a2.893 2.893 0 110-5.785zM2.893 0h68.786a2.893 2.893 0 110 5.786H2.893a2.893 2.893 0 010-5.786zm14.143 21.214h79.071a2.893 2.893 0 010 5.786H17.036a2.893 2.893 0 110-5.786z" fill="#DAE2ED" fill-rule="nonzero"></path>
            <g transform="translate(0 10.286)">
                <rect fill="#2F90FF" fill-rule="nonzero" width="6.429" height="6.429" rx="2"></rect>
                <path d="M2.734 4.823a.327.327 0 01-.238-.104L1.304 3.465a.367.367 0 010-.5.325.325 0 01.477 0l.953 1.002L4.878 1.71a.325.325 0 01.477 0 .367.367 0 010 .501L2.972 4.72a.328.328 0 01-.238.104" fill="#FFF"></path>
            </g>
            <rect fill="#DAE2ED" fill-rule="nonzero" y="20.571" width="6.429" height="6.429" rx="2"></rect>
            <g transform="translate(0 20.571)">
                <rect fill="#2F90FF" fill-rule="nonzero" width="6.429" height="6.429" rx="2"></rect>
                <path d="M2.734 4.823a.327.327 0 01-.238-.104L1.304 3.465a.367.367 0 010-.5.325.325 0 01.477 0l.953 1.002L4.878 1.71a.325.325 0 01.477 0 .367.367 0 010 .501L2.972 4.72a.328.328 0 01-.238.104" fill="#FFF"></path>
            </g>
        </g>
        <rect fill="#2F90FF" fill-rule="nonzero" x="77.417" y="109" width="32" height="10" rx="4"></rect>
    </g>
</svg>