<svg xmlns="http://www.w3.org/2000/svg" viewBox="0 0 121 92" class="jfWizard-list-item-icon-svg" width="166" height="146">
    <g fill="none" fill-rule="evenodd">
        <rect fill="#FFF" fill-rule="nonzero" x="7.934" width="105.131" height="62.153" rx="4"></rect>
        <path d="M7.934 49.59h105.132v9.224a4 4 0 01-4 4H11.934a4 4 0 01-4-4V49.59z" fill="#2A5ACA" fill-rule="nonzero"></path>
        <g transform="translate(15.208 11.24)">
            <rect fill="#DAE2ED" fill-rule="nonzero" x="10.579" y="11.24" width="80.667" height="5.951" rx="2.975"></rect>
            <rect fill="#DAE2ED" fill-rule="nonzero" width="50.913" height="5.951" rx="2.975"></rect>
            <path d="M13.555 21.82H88.27a2.975 2.975 0 010 5.95H13.555a2.975 2.975 0 010-5.95z" fill="#DAE2ED" fill-rule="nonzero"></path>
            <g transform="translate(0 10.58)">
                <rect fill="#2F90FF" fill-rule="nonzero" width="6.612" height="6.612" rx="2"></rect>
                <path d="M2.812 4.96a.337.337 0 01-.245-.107L1.34 3.564a.378.378 0 010-.515.334.334 0 01.49 0l.98 1.031 2.206-2.32a.334.334 0 01.49 0 .378.378 0 010 .515l-2.45 2.578a.337.337 0 01-.245.107" fill="#FFF"></path>
            </g>
            <rect fill="#DAE2ED" fill-rule="nonzero" y="21.158" width="6.612" height="6.612" rx="2"></rect>
        </g>
        <rect fill="#FFF" fill-rule="nonzero" width="121" height="62.153" rx="4"></rect>
        <path d="M0 49.59h121v9.224a4 4 0 01-4 4H4a4 4 0 01-4-4V49.59z" fill="#51DCA9" fill-rule="nonzero"></path>
        <g transform="translate(9.257 11.24)">
            <path d="M14.877 11.24H98.85a2.975 2.975 0 010 5.951H14.877a2.975 2.975 0 110-5.95zM2.975 0h50.913a2.975 2.975 0 110 5.95H2.975a2.975 2.975 0 110-5.95zm11.902 21.82H98.85a2.975 2.975 0 010 5.95H14.877a2.975 2.975 0 110-5.95z" fill="#DAE2ED" fill-rule="nonzero"></path>
            <g transform="translate(0 10.58)">
                <rect fill="#2F90FF" fill-rule="nonzero" width="6.612" height="6.612" rx="2"></rect>
                <path d="M2.812 4.96a.337.337 0 01-.245-.107L1.34 3.564a.378.378 0 010-.515.334.334 0 01.49 0l.98 1.031 2.206-2.32a.334.334 0 01.49 0 .378.378 0 010 .515l-2.45 2.578a.337.337 0 01-.245.107" fill="#FFF"></path>
            </g>
            <rect fill="#DAE2ED" fill-rule="nonzero" y="21.158" width="6.612" height="6.612" rx="2"></rect>
        </g>
        <path stroke="#319BF3" stroke-width="2" stroke-linecap="round" stroke-linejoin="round" d="M8.596 86.646h104.47"></path>
        <circle stroke="#319BF3" stroke-width="1.5" fill="#51DCA9" fill-rule="nonzero" cx="60.831" cy="86.646" r="3.967"></circle>
        <circle fill="#319BF3" fill-rule="nonzero" cx="9.918" cy="86.646" r="3.967"></circle>
        <circle fill="#319BF3" fill-rule="nonzero" cx="111.743" cy="86.646" r="3.967"></circle>
    </g>
</svg>