<svg width="69" height="28" viewBox="0 0 69 28" fill="none" xmlns="http://www.w3.org/2000/svg">
<path d="M1.40496 14.05C1.40496 12.196 1.81896 10.54 2.64696 9.082C3.49296 7.606 4.63596 6.463 6.07596 5.653C7.53396 4.825 9.16296 4.411 10.963 4.411C13.069 4.411 14.914 4.951 16.498 6.031C18.082 7.111 19.189 8.605 19.819 10.513H15.472C15.04 9.613 14.428 8.938 13.636 8.488C12.862 8.038 11.962 7.813 10.936 7.813C9.83796 7.813 8.85696 8.074 7.99296 8.596C7.14696 9.1 6.48096 9.82 5.99496 10.756C5.52696 11.692 5.29296 12.79 5.29296 14.05C5.29296 15.292 5.52696 16.39 5.99496 17.344C6.48096 18.28 7.14696 19.009 7.99296 19.531C8.85696 20.035 9.83796 20.287 10.936 20.287C11.962 20.287 12.862 20.062 13.636 19.612C14.428 19.144 15.04 18.46 15.472 17.56H19.819C19.189 19.486 18.082 20.989 16.498 22.069C14.932 23.131 13.087 23.662 10.963 23.662C9.16296 23.662 7.53396 23.257 6.07596 22.447C4.63596 21.619 3.49296 20.476 2.64696 19.018C1.81896 17.56 1.40496 15.904 1.40496 14.05ZM36.9526 15.697C36.9526 16.237 36.9166 16.723 36.8446 17.155H25.9096C25.9996 18.235 26.3776 19.081 27.0436 19.693C27.7096 20.305 28.5286 20.611 29.5006 20.611C30.9046 20.611 31.9036 20.008 32.4976 18.802H36.5746C36.1426 20.242 35.3146 21.43 34.0906 22.366C32.8666 23.284 31.3636 23.743 29.5816 23.743C28.1416 23.743 26.8456 23.428 25.6936 22.798C24.5596 22.15 23.6686 21.241 23.0206 20.071C22.3906 18.901 22.0756 17.551 22.0756 16.021C22.0756 14.473 22.3906 13.114 23.0206 11.944C23.6506 10.774 24.5326 9.874 25.6666 9.244C26.8006 8.614 28.1056 8.299 29.5816 8.299C31.0036 8.299 32.2726 8.605 33.3886 9.217C34.5226 9.829 35.3956 10.702 36.0076 11.836C36.6376 12.952 36.9526 14.239 36.9526 15.697ZM33.0376 14.617C33.0196 13.645 32.6686 12.871 31.9846 12.295C31.3006 11.701 30.4636 11.404 29.4736 11.404C28.5376 11.404 27.7456 11.692 27.0976 12.268C26.4676 12.826 26.0806 13.609 25.9366 14.617H33.0376ZM45.9486 20.017L49.7286 8.542H53.7516L48.2166 23.5H43.6266L38.1186 8.542H42.1686L45.9486 20.017ZM57.7917 6.76C57.1257 6.76 56.5677 6.553 56.1177 6.139C55.6857 5.707 55.4697 5.176 55.4697 4.546C55.4697 3.916 55.6857 3.394 56.1177 2.98C56.5677 2.548 57.1257 2.332 57.7917 2.332C58.4577 2.332 59.0067 2.548 59.4387 2.98C59.8887 3.394 60.1137 3.916 60.1137 4.546C60.1137 5.176 59.8887 5.707 59.4387 6.139C59.0067 6.553 58.4577 6.76 57.7917 6.76ZM59.6547 8.542V23.5H55.8747V8.542H59.6547Z" fill="#23262F"/>
<path d="M65.0634 23.689C64.3794 23.689 63.8124 23.482 63.3624 23.068C62.9304 22.636 62.7144 22.105 62.7144 21.475C62.7144 20.845 62.9304 20.323 63.3624 19.909C63.8124 19.477 64.3794 19.261 65.0634 19.261C65.7294 19.261 66.2784 19.477 66.7104 19.909C67.1424 20.323 67.3584 20.845 67.3584 21.475C67.3584 22.105 67.1424 22.636 66.7104 23.068C66.2784 23.482 65.7294 23.689 65.0634 23.689Z" fill="#3B71FE"/>
</svg>
