<?xml version="1.0" encoding="utf-8"?>
<svg version="1.1" xmlns="http://www.w3.org/2000/svg" xmlns:xlink="http://www.w3.org/1999/xlink" x="0px" y="0px" xml:space="preserve">
	<g>
		<path d="M0.15,251.65c0.65-0.06,0.78,0.37,0.87,0.68c0.74,2.5,2.48,4.26,4.31,5.96c7.98,7.38,17.47,11.72,28.04,13.91
			c16.67,3.46,33.09,2.83,49.16-3.06c18.41-6.75,32.41-18.84,42.57-35.51c0.53-0.87,0.92-1.88,2.25-1.52
			c1.21,0.32,1.45,1.27,1.5,2.34c0.31,5.97,0.63,11.94,0.93,17.91c0.38,7.26,0.83,14.51,2.32,21.64c0.67,3.23,1.54,6.42,3.47,9.31
			c1.67-1.09,2.33-2.73,3.06-4.29c2.13-4.53,3.21-9.37,3.98-14.28c0.89-5.64,1.18-11.32,1.21-17.02c0.03-4.78,0.18-9.56,0.93-14.29
			c0.07-0.45,0.14-0.91,0.25-1.35c0.69-2.6,2.35-3.11,4.39-1.29c1.62,1.45,2.53,3.36,3.14,5.42c1,3.37,1.35,6.85,1.58,10.34
			c0.42,6.42,0.68,12.86,1.17,19.28c0.59,7.72,1.87,15.33,4.38,22.68c0.71,2.09,1.52,4.15,2.78,5.99c1.72,2.51,2.94,2.57,4.92,0.2
			c0.95-1.13,1.67-2.41,2.31-3.74c2.25-4.69,3.36-9.71,4.28-14.78c1.42-7.89,1.96-15.85,1.71-23.87c-0.07-2.13-0.61-3.61-2.62-4.96
			c-5.3-3.57-7.33-8.98-7.31-15.23c0-0.93,0.23-1.83,0.63-2.67c0.87-1.83,2.46-2.21,4.06-0.96c1.28,1,1.91,2.45,2.54,3.88
			c1.64,3.73,2.58,7.65,3.24,11.65c0.75,4.55,0.74,4.56,5.1,5.78c1.78,0.49,3.58,0.86,5.42,0.95c2.5,0.12,3.21-0.31,4.21-2.6
			c0.95-2.16,2.3-3.99,4.3-5.25c3.25-2.06,6.23-0.98,7.28,2.69c0.68,2.4,0.97,4.86,0.63,7.37c-0.62,4.6-2.89,7.09-7.38,7.99
			c0.16,3.57,0.67,7.1,1.79,10.52c0.23,0.7,0.49,1.39,0.8,2.06c2.08,4.53,4.73,5.4,9.05,2.97c2.52-1.42,4.57-3.39,6.44-5.56
			c4.34-5.06,7.64-10.79,10.72-16.67c0.53-1.01,0.63-2.07,0.57-3.2c-0.62-12.87-0.62-25.75,0.28-38.61
			c0.59-8.44,1.5-16.85,3.8-25.04c0.97-3.46,2.21-6.83,3.99-9.96c1.19-2.09,2.59-4.04,4.61-5.42c2.63-1.79,5.01-1.14,6.28,1.76
			c1.08,2.47,1.38,5.14,1.58,7.8c0.62,7.97-0.71,15.75-2.39,23.49c-2.61,11.96-6.2,23.61-10.66,35.01
			c-0.37,0.95-0.66,1.88-0.62,2.93c0.64,15.63,1.49,31.23,4.91,46.56c0.42,1.89,0.97,3.74,1.94,5.43c1.29,2.24,2.21,2.38,4.04,0.61
			c1.75-1.69,2.88-3.81,3.85-6c2.35-5.31,3.87-10.91,5.6-16.43c1.29-4.12,2.31-8.34,3.85-12.36s3-8.04,4.17-12.19
			c0.89-3.14,2.55-5.91,5.24-7.91c3.12-2.32,6.96-1.62,9.08,1.66c1.3,2.02,1.7,4.24,1.44,6.6c-0.04,0.33-0.01,0.77-0.54,0.77
			c-0.45,0-0.67-0.33-0.71-0.69c-0.14-1.28-0.18-2.58-0.67-3.79c-0.74-1.81-1.54-3.86-3.74-4c-1.96-0.12-2.86,1.76-3.8,3.22
			c-1.21,1.9-1.72,4.06-2.03,6.25c-1.17,8.23-0.37,16.32,1.87,24.29c0.22,0.79,0.52,1.58,0.89,2.31c1.2,2.3,2.89,2.64,4.91,0.99
			c1.24-1.01,2.02-2.37,2.72-3.78c2.05-4.13,3.65-8.43,5.03-12.82c1.21-3.85,2.36-7.72,3.53-11.59c0.35-1.15,0.76-2.27,1.52-3.21
			c0.68-0.83,1.54-1.29,2.64-1.22c1.92,0.13,2.45,1,1.78,2.87c-1.47,4.1-1.69,8.26-0.43,12.45c0.39,1.29,0.73,3,2.25,3.2
			c1.66,0.22,2.47-1.37,3.24-2.61c1.35-2.17,1.67-4.63,1.9-7.12c0.1-1.03-0.24-1.71-1.25-2.15c-1.39-0.6-2.43-1.65-3.12-3
			c-0.93-1.81-0.78-3.61,0.34-4.26c1.29-0.75,3.09-0.01,4.15,1.72c0.68,1.12,1.04,2.36,1.19,3.65c0.16,1.43,0.97,1.79,2.28,1.58
			c3.27-0.54,6.5-1.23,9.55-2.57c1.37-0.6,2.61-1.38,3.43-2.67c0.71-1.11,1.56-1.76,2.97-1.41c1.48,0.37,2.01,1.38,2.23,2.79
			c0.41,2.66,0.23,5.32,0.27,7.99c0.03,1.9,0.01,3.79,0.21,5.71c1.05-1.81,1.17-3.83,1.62-5.75c0.98-4.22,2.22-8.35,4.12-12.25
			c0.28-0.58,0.56-1.16,0.89-1.71c2.03-3.39,4.91-3.65,7.58-0.66c1.72,1.93,2.43,4.29,2.79,6.78c0.18,1.26,0.33,2.52,0.87,3.82
			c0.8-2.19,1.58-4.38,2.41-6.56c0.92-2.42,2.09-4.71,3.55-6.84c0.57-0.83,1.2-1.64,1.94-2.32c2.87-2.66,6.29-2.24,8.44,1.03
			c1.4,2.13,1.95,4.53,2.11,7.05c0.24,3.88-0.23,7.72-0.68,11.55c-0.7,5.94-1.17,11.89-1.54,17.86c-0.2,3.3-0.23,6.62,0.56,9.88
			c0.32,1.35,0.72,2.68,1.55,3.8c0.93,1.25,1.78,1.38,3.07,0.51c1.16-0.8,1.99-1.91,2.65-3.13c3.16-5.84,5.52-12.02,7.59-18.31
			c0.35-1.06,0.2-2.19,0.24-3.29c0.14-4.16,0.63-8.26,2.63-12.02c0.82-1.55,1.74-3.04,3.18-4.12c2.62-1.96,5.18-1.22,6.35,1.8
			c0.84,2.18,1.16,4.45,0.94,6.77c-0.33,3.46-1.94,5.21-5.42,5.82c-0.85,0.15-1.08,0.51-1.08,1.24c-0.02,4.91,0.29,9.82,2.48,14.28
			c2.78,5.67,6.88,7.8,12.5,6.53c4.37-0.99,8.35-2.81,12.07-5.22c6.49-4.22,12.35-9.27,18.41-14.06
			c11.19-8.85,22.58-17.41,35.12-24.29c10.97-6.03,22.75-9.83,35.04-12.01c3.14-0.56,6.4-0.81,9.33,1.19
			c-6.51-2.17-12.63,0.13-18.77,1.67c-16.13,4.04-30.31,12.03-43.64,21.74c-8.78,6.39-17.17,13.26-25.66,20.02
			c-4.89,3.89-9.85,7.73-15.68,10.17c-3.4,1.43-6.86,2.62-10.65,2.46c-1.69-0.07-3.32-0.36-4.78-1.16
			c-5.07-2.77-9.09-6.52-11.13-12.09c-0.12-0.34-0.26-0.68-0.45-1.17c-0.7,0.49-0.8,1.18-1.02,1.81c-1.49,4.15-3.06,8.27-5.04,12.22
			c-0.53,1.06-1.12,2.13-1.86,3.05c-2.86,3.62-7.23,3.54-10.06-0.14c-1.02-1.33-1.69-2.84-2.21-4.42
			c-1.56-4.77-2.16-9.68-2.16-14.67c-0.01-7.48,1-14.85,2.3-22.2c0.45-2.54,0.67-5.12,0.49-7.69c-0.18-2.49-1.31-3.03-3.47-1.71
			c-1.78,1.09-2.9,2.79-3.9,4.56c-2.58,4.53-4.04,9.44-4.92,14.54c-0.43,2.53-0.76,5.08-1.24,7.6c-0.23,1.23-0.43,2.64-2.2,2.7
			c-1.53,0.05-2.68-0.73-3.14-2.54c-0.95-3.77-1.09-7.64-0.86-11.51c0.17-2.95,0.01-5.88-0.3-8.81c-0.08-0.73-0.1-1.68-0.8-1.94
			c-0.93-0.34-1.46,0.6-1.93,1.24c-1.96,2.62-3.03,5.65-3.88,8.77c-1.15,4.27-1.54,8.66-2.18,13.01c-0.13,0.91-0.29,1.82-0.54,2.7
			c-0.68,2.48-2.7,3.18-4.82,1.7c-1.01-0.71-1.65-1.72-2.15-2.82c-1.01-2.22-1.32-4.57-1.37-6.98c-0.07-3.12,0.31-6.22,0.54-9.28
			c-0.82-0.49-1.3,0.12-1.84,0.35c-3.49,1.48-7.09,2.57-10.89,2.81c-1.16,0.07-1.62,0.4-1.59,1.61c0.05,2.12-0.33,4.19-1.03,6.21
			c-0.33,0.97-0.74,1.88-1.29,2.73c-2.09,3.21-5.26,3.68-8.23,1.21c-1.51-1.26-2.52-2.89-3.35-4.66c-0.3-0.64-0.28-1.45-1.2-2.05
			c-0.3,0.97-0.62,1.86-0.87,2.77c-1.41,5.25-3.15,10.37-5.52,15.27c-3.36,6.92-10.67,7.35-15,0.91c-2.12-3.15-2.86-6.73-3.25-10.42
			c-0.14-1.35-0.2-2.71-0.32-4.28c-1.12,0.64-1.06,1.62-1.29,2.37c-2.06,6.96-4.05,13.93-6.08,20.9c-0.75,2.56-1.68,5.06-2.92,7.43
			c-0.81,1.55-1.74,3.03-3.05,4.23c-2.89,2.62-6.61,2.58-9.4-0.16c-2.56-2.52-3.97-5.73-5.09-9.05c-1.75-5.16-2.59-10.53-3.29-15.91
			c-0.52-4.01-0.87-8.04-1.3-12.07c-0.09-0.87-0.02-1.78-0.54-2.66c-0.89,0.67-1.13,1.59-1.55,2.37c-2.61,4.77-5.43,9.4-8.99,13.53
			c-1.51,1.75-3.18,3.33-5.11,4.6c-5.29,3.47-11.2,2.63-15.35-2.17c-2.09-2.42-3.35-5.27-4.13-8.33c-1.14-4.5-1.58-9.05-0.7-13.66
			c0.09-0.45,0.13-0.91,0.16-1.37c0.01-0.17-0.07-0.35-0.15-0.75c-4.11,0.37-8.04-0.76-12.07-2.02c0,2.11-0.03,4,0.01,5.89
			c0.2,11.07-0.7,22.01-3.8,32.69c-0.67,2.3-1.56,4.52-2.84,6.56c-3.04,4.84-7.88,5.55-12.13,1.77c-2.95-2.63-4.86-5.98-6.32-9.59
			c-2.89-7.15-4.07-14.67-4.72-22.31c-0.7-8.27-0.15-16.55-0.32-24.82c-0.04-1.92-0.01-3.84-0.28-5.77
			c-1.44,2.21-1.42,4.69-1.48,7.09c-0.11,5.06,0.03,10.12-0.04,15.18c-0.1,7.36-0.78,14.66-2.8,21.78c-0.58,2.04-1.27,4.04-2.4,5.84
			c-2.26,3.57-6.48,4.2-9.71,1.45c-1.66-1.41-2.66-3.26-3.47-5.24c-2.21-5.35-2.91-11.01-3.18-16.72
			c-0.39-8.45-0.29-16.9,1.04-25.48c-1.24,0.38-1.67,1.34-2.26,2.08c-5.66,7.05-11.74,13.68-19.14,18.98
			c-12.7,9.1-26.81,14.34-42.39,15.65c-13.29,1.12-26.24-0.43-38.76-5.06C15.21,267.08,9.03,263,3.6,257.75
			c-1.13-1.09-2.14-2.28-2.9-3.66C0.29,253.34-0.27,252.57,0.15,251.65z M232.21,236.31c0.35-0.69,0.5-0.93,0.59-1.18
			c3.75-10.08,6.87-20.35,9.12-30.87c1.49-6.93,2.59-13.91,2.18-21.03c-0.18-3.03-0.54-6.05-1.68-8.9
			c-0.61-1.52-1.24-1.65-2.43-0.59c-0.47,0.42-0.86,0.95-1.24,1.46c-1.77,2.42-2.67,5.22-3.4,8.07c-1.33,5.17-2.01,10.45-2.49,15.76
			c-1.08,12.01-1.14,24.04-0.95,36.08C231.92,235.38,232.03,235.63,232.21,236.31z M175.13,246.92c-0.23-1.65-0.36-2.91-0.58-4.15
			c-0.78-4.23-1.72-8.43-3.88-12.22c-0.39-0.69-0.75-1.64-1.72-1.57c-1.17,0.09-1.14,1.28-1.41,2.08c-0.19,0.59-0.15,1.27-0.13,1.91
			c0.15,4.15,1.51,7.87,4.12,11.11C172.39,245.13,173.33,246.12,175.13,246.92z M199.69,244.15c-1.54,1.27-2,2.67-2.5,4.02
			c-1.01,2.78-1.21,5.71-1.49,8.62c-0.09,0.92-0.57,2.2,0.59,2.72c1.15,0.51,2.11-0.37,2.85-1.16c0.68-0.72,1.33-1.56,1.7-2.46
			C202.46,251.9,201.97,248.07,199.69,244.15z M378.14,248.57c-0.74,0.34-0.92,1.04-1.11,1.73c-0.75,2.73-1.38,5.47-1.61,8.3
			c-0.05,0.61-0.39,1.4,0.23,1.79c0.78,0.48,1.58,0.06,2.26-0.44c0.6-0.44,1.06-1,1.41-1.65
			C380.77,255.64,380.23,251.11,378.14,248.57z M295.95,251.04c0.29-1.68-0.32-2.97-1.06-4.22c-0.23-0.38-0.53-0.78-1.07-0.66
			c-0.58,0.13-0.61,0.66-0.56,1.08C293.46,248.93,294.08,250.33,295.95,251.04z" />
	</g>
</svg>
